<svg version="1.1" xmlns="http://www.w3.org/2000/svg" xmlns:xlink="http://www.w3.org/1999/xlink" width="24" height="24" viewBox="0,0,256,256"><g fill="none" fill-rule="nonzero" stroke="none" stroke-width="none" stroke-linecap="round" stroke-linejoin="round" stroke-miterlimit="10" stroke-dasharray="" stroke-dashoffset="0" font-family="none" font-weight="none" font-size="none" text-anchor="none" style="mix-blend-mode: normal"><path transform="scale(10.66667,10.66667)" d="M3.3559,8.74005c0.35589,-0.72768 1.01943,-1.24377 2.34651,-2.27594l2.00001,-1.55556c2.06447,-1.6057 3.09668,-2.40855 4.29758,-2.40855c1.2009,0 2.2331,0.80285 4.2976,2.40855l2,1.55556c1.3271,1.03217 1.9906,1.54826 2.3465,2.27594c0.3559,0.72768 0.3559,1.56825 0.3559,3.24955v2.5104c0,3.2998 0,4.9497 -1.0251,5.9749c-1.0252,1.0251 -2.6751,1.0251 -5.9749,1.0251h-4c-3.29983,0 -4.94975,0 -5.97487,-1.0251c-1.02513,-1.0252 -1.02513,-2.6751 -1.02513,-5.9749v-2.5104c0,-1.6813 0,-2.52187 0.3559,-3.24955z" id="strokeMainSVG" fill="#dddddd" stroke="#dddddd" stroke-width="3"></path><g transform="scale(10.66667,10.66667)" fill="none" stroke="#fcfcfc" stroke-width="1.5"><path d="M3,11.9896v2.5104c0,3.2998 0,4.9497 1.02513,5.9749c1.02512,1.0251 2.67504,1.0251 5.97487,1.0251h4c3.2998,0 4.9497,0 5.9749,-1.0251c1.0251,-1.0252 1.0251,-2.6751 1.0251,-5.9749v-2.5104c0,-1.6813 0,-2.52187 -0.3559,-3.24955c-0.3559,-0.72768 -1.0194,-1.24377 -2.3465,-2.27594l-2,-1.55556c-2.0645,-1.6057 -3.0967,-2.40855 -4.2976,-2.40855c-1.2009,0 -2.23311,0.80285 -4.29758,2.40855l-2.00001,1.55556c-1.32708,1.03217 -1.99062,1.54826 -2.34651,2.27594c-0.3559,0.72768 -0.3559,1.56825 -0.3559,3.24955z"></path><path d="M16,17h-8"></path></g></g></svg>